<?xml version="1.0" encoding="utf-8"?>
<!-- Generator: Adobe Illustrator 19.0.0, SVG Export Plug-In . SVG Version: 6.00 Build 0)  -->
<svg version="1.1" id="Layer_1" xmlns="http://www.w3.org/2000/svg" xmlns:xlink="http://www.w3.org/1999/xlink" x="0px" y="0px"
	 viewBox="0 0 512 512" style="enable-background:new 0 0 512 512;" xml:space="preserve">
<style type="text/css">
	.st0{fill:#E16B5A;}
	.st1{fill:#66401E;}
	.st2{fill:#99602D;}
	.st3{fill:#FFE1D9;}
	.st4{fill:#F2D6CE;}
	.st5{fill:#198058;}
	.st6{fill:#FFD464;}
	.st7{fill:#CC584C;}
	.st8{fill:#E6E6E6;}
	.st9{fill:#F5F5F5;}
	.st10{fill:#BF5347;}
</style>
<g id="XMLID_1_">
	<circle id="XMLID_3_" class="st0" cx="256" cy="256" r="256"/>
	<path id="XMLID_4_" class="st1" d="M52.8,411.2c46.5,59.9,120.5,100,203.2,100s156-40.2,203.2-100H52.8z"/>
	<path id="XMLID_5_" class="st2" d="M452.1,419.1c2.4,0,4.7-3.9,6.3-7.9H52.8c2.4,3.9,3.9,7.9,6.3,7.9H452.1z"/>
	<path id="XMLID_6_" class="st3" d="M132.3,298.5V171.7c0-8.7,7.1-17.3,15.8-17.3h215.8c8.7,0,15.8,8.7,15.8,17.3v126.8H132.3z"/>
	<path id="XMLID_7_" class="st4" d="M363.9,163.1H148.1c-8.7,0-15.8,8.7-15.8,17.3v41.7c8.7,0,16.5-4.7,20.5-11.8
		c3.9,7.1,11.8,11.8,20.5,11.8c8.7,0,16.5-4.7,20.5-11.8c3.9,7.1,11.8,11.8,20.5,11.8c8.7,0,16.5-4.7,20.5-11.8
		c3.9,7.1,11.8,11.8,20.5,11.8c8.7,0,16.5-4.7,20.5-11.8c3.9,7.1,11.8,11.8,20.5,11.8s16.5-4.7,20.5-11.8
		c3.9,7.1,11.8,11.8,20.5,11.8c8.7,0,16.5-4.7,20.5-11.8c3.9,7.1,11.8,11.8,20.5,11.8v-41.7C379.7,170.9,372.6,163.1,363.9,163.1z"
		/>
	<path id="XMLID_9_" class="st4" d="M363.9,155.2h-15.8c8.7,0,15.8,8.7,15.8,17.3v126.8h15.8V171.7
		C379.7,163.1,372.6,155.2,363.9,155.2z"/>
	<path id="XMLID_11_" class="st3" d="M92.2,411.2V284.4c0-8.7,7.1-17.3,15.8-17.3h296.2c8.7,0,15.8,8.7,15.8,17.3v126.8H92.2z"/>
	<path id="XMLID_12_" class="st4" d="M404.1,267h-15.8c8.7,0,15.8,8.7,15.8,17.3v126.8h15.8V284.4C419.8,274.9,412.8,267,404.1,267z
		"/>
	<rect id="XMLID_13_" x="132.3" y="259.2" class="st4" width="248.1" height="7.9"/>
	<rect id="XMLID_14_" x="248.1" y="150.4" class="st5" width="11.8" height="3.9"/>
	<path id="XMLID_15_" class="st5" d="M267.8,148.9c0-0.8-0.8-2.4-2.4-2.4h-23.6c-0.8,0-2.4,0.8-2.4,2.4c0,0.8,0.8,2.4,2.4,2.4h23.6
		C267,150.4,267.8,149.7,267.8,148.9z"/>
	<path id="XMLID_16_" class="st6" d="M267.8,78c0,7.9-6.3,14.2-14.2,14.2s-14.2-6.3-14.2-14.2c0-14.2,15.8-10.2,14.2-33.9
		C263.9,52,267.8,70.1,267.8,78z"/>
	<path id="XMLID_17_" class="st7" d="M260.7,85.1c0,3.9-3.2,7.1-7.1,7.1c-3.9,0-7.1-3.2-7.1-7.1c0-7.1,7.9-4.7,7.1-17.3
		C259.2,71.7,260.7,81.1,260.7,85.1z"/>
	<path id="XMLID_18_" class="st8" d="M253.6,100c-0.8,0-2.4-0.8-2.4-2.4V85.9c0-0.8,0.8-2.4,2.4-2.4s2.4,0.8,2.4,2.4v11.8
		C256,99.2,255.2,100,253.6,100z"/>
	<rect id="XMLID_19_" x="244.2" y="94.5" class="st9" width="19.7" height="52"/>
	<polygon id="XMLID_20_" class="st7" points="244.2,120.5 263.9,137.1 263.9,131.5 244.2,115 	"/>
	<polygon id="XMLID_21_" class="st7" points="244.2,137.1 257.6,146.5 263.9,146.5 263.9,147.3 244.2,131.5 	"/>
	<polygon id="XMLID_22_" class="st7" points="244.2,104.8 263.9,120.5 263.9,115 244.2,99.2 	"/>
	<polygon id="XMLID_23_" class="st7" points="259.9,94.5 252.8,94.5 263.9,104.8 263.9,99.2 	"/>
	<path id="XMLID_24_" class="st4" d="M404.1,274.9H107.9c-8.7,0-15.8,8.7-15.8,17.3V356c11.8,0,22.1-6.3,27.6-15.8
		c5.5,9.5,15.8,15.8,27.6,15.8s22.1-6.3,27.6-15.8c5.5,9.5,15.8,15.8,27.6,15.8s22.1-6.3,27.6-15.8c5.5,9.5,15.8,15.8,27.6,15.8
		c11.8,0,22.1-6.3,27.6-15.8c5.5,9.5,15.8,15.8,27.6,15.8c11.8,0,22.1-6.3,27.6-15.8c5.5,9.5,15.8,15.8,27.6,15.8
		c11.8,0,22.1-6.3,27.6-15.8c5.5,9.5,15.8,15.8,27.6,15.8v-63.8C419.8,283.6,412.8,274.9,404.1,274.9z"/>
	<path id="XMLID_25_" class="st9" d="M404.1,267H107.9c-8.7,0-15.8,8.7-15.8,17.3v63.8c11.8,0,22.1-6.3,27.6-15.8
		c5.5,9.5,15.8,15.8,27.6,15.8s22.1-6.3,27.6-15.8c5.5,9.5,15.8,15.8,27.6,15.8s22.1-6.3,27.6-15.8c5.5,9.5,15.8,15.8,27.6,15.8
		c11.8,0,22.1-6.3,27.6-15.8c5.5,9.5,15.8,15.8,27.6,15.8c11.8,0,22.1-6.3,27.6-15.8c5.5,9.5,15.8,15.8,27.6,15.8
		c11.8,0,22.1-6.3,27.6-15.8c5.5,9.5,15.8,15.8,27.6,15.8v-63.8C419.8,274.9,412.8,267,404.1,267z"/>
	<path id="XMLID_26_" class="st8" d="M404.1,267h-15.8c8.7,0,15.8,8.7,15.8,17.3v59.9c4.7,2.4,10.2,3.9,15.8,3.9v-63.8
		C419.8,274.9,412.8,267,404.1,267z"/>
	<path id="XMLID_27_" class="st9" d="M363.9,155.2H148.1c-8.7,0-15.8,8.7-15.8,17.3v41.7c8.7,0,16.5-4.7,20.5-11.8
		c3.9,7.1,11.8,11.8,20.5,11.8c8.7,0,16.5-4.7,20.5-11.8c3.9,7.1,11.8,11.8,20.5,11.8c8.7,0,16.5-4.7,20.5-11.8
		c3.9,7.1,11.8,11.8,20.5,11.8c8.7,0,16.5-4.7,20.5-11.8c3.9,7.1,11.8,11.8,20.5,11.8s16.5-4.7,20.5-11.8
		c3.9,7.1,11.8,11.8,20.5,11.8c8.7,0,16.5-4.7,20.5-11.8c3.9,7.1,11.8,11.8,20.5,11.8v-41.7C379.7,163.1,372.6,155.2,363.9,155.2z"
		/>
	<path id="XMLID_28_" class="st8" d="M363.9,155.2h-15.8c8.7,0,15.8,8.7,15.8,17.3V208c3.9,3.9,9.5,6.3,15.8,6.3v-41.7
		C379.7,163.1,372.6,155.2,363.9,155.2z"/>
	<rect id="XMLID_29_" x="132.3" y="170.9" class="st7" width="248.1" height="7.9"/>
	<rect id="XMLID_30_" x="363.9" y="170.9" class="st10" width="15.8" height="7.9"/>
	<rect id="XMLID_31_" x="92.2" y="290.7" class="st7" width="327.7" height="7.9"/>
	<rect id="XMLID_32_" x="404.1" y="290.7" class="st10" width="15.8" height="7.9"/>
</g>
</svg>
